<svg xmlns="http://www.w3.org/2000/svg" xmlns:xlink="http://www.w3.org/1999/xlink" width="1080" zoomAndPan="magnify" viewBox="0 0 810 1012.49997" height="1350" preserveAspectRatio="xMidYMid meet" version="1.0"><defs><clipPath id="35d38db225"><path d="M 0.199219 80.960938 L 809.800781 80.960938 L 809.800781 890.558594 L 0.199219 890.558594 Z M 0.199219 80.960938 " clip-rule="nonzero"/></clipPath><clipPath id="dba039f9cd"><path d="M 405 80.960938 C 181.433594 80.960938 0.199219 262.195312 0.199219 485.761719 C 0.199219 709.324219 181.433594 890.558594 405 890.558594 C 628.566406 890.558594 809.800781 709.324219 809.800781 485.761719 C 809.800781 262.195312 628.566406 80.960938 405 80.960938 Z M 405 80.960938 " clip-rule="nonzero"/></clipPath><clipPath id="c7b71f9e64"><path d="M 0.199219 0.960938 L 809.800781 0.960938 L 809.800781 810.558594 L 0.199219 810.558594 Z M 0.199219 0.960938 " clip-rule="nonzero"/></clipPath><clipPath id="db7e2bea9d"><path d="M 405 0.960938 C 181.433594 0.960938 0.199219 182.195312 0.199219 405.761719 C 0.199219 629.324219 181.433594 810.558594 405 810.558594 C 628.566406 810.558594 809.800781 629.324219 809.800781 405.761719 C 809.800781 182.195312 628.566406 0.960938 405 0.960938 Z M 405 0.960938 " clip-rule="nonzero"/></clipPath><clipPath id="c964608900"><rect x="0" width="810" y="0" height="811"/></clipPath></defs><g clip-path="url(#35d38db225)"><g clip-path="url(#dba039f9cd)"><g transform="matrix(1, 0, 0, 1, 0.000000000000000028, 80)"><g clip-path="url(#c964608900)"><g clip-path="url(#c7b71f9e64)"><g clip-path="url(#db7e2bea9d)"><path fill="#15b65a" d="M 0.199219 0.960938 L 809.800781 0.960938 L 809.800781 810.558594 L 0.199219 810.558594 Z M 0.199219 0.960938 " fill-opacity="1" fill-rule="nonzero"/></g></g></g></g></g></g><path fill="#ffffff" d="M 603.464844 287.289062 C 601.699219 285.511719 599.898438 283.777344 598.054688 282.085938 C 596.214844 280.390625 594.332031 278.738281 592.414062 277.132812 C 590.5 275.523438 588.546875 273.960938 586.558594 272.441406 C 584.570312 270.921875 582.546875 269.449219 580.492188 268.019531 C 578.433594 266.59375 576.347656 265.214844 574.230469 263.882812 C 572.109375 262.550781 569.964844 261.265625 567.785156 260.03125 C 565.609375 258.796875 563.40625 257.613281 561.175781 256.480469 C 558.945312 255.34375 556.6875 254.261719 554.410156 253.230469 C 552.128906 252.199219 549.828125 251.222656 547.5 250.296875 C 545.175781 249.367188 542.832031 248.496094 540.46875 247.675781 C 538.101562 246.855469 535.722656 246.089844 533.320312 245.378906 C 530.921875 244.667969 528.507812 244.011719 526.078125 243.410156 C 523.648438 242.808594 521.207031 242.265625 518.753906 241.773438 C 516.300781 241.285156 513.835938 240.851562 511.363281 240.472656 C 508.890625 240.09375 506.410156 239.773438 503.917969 239.507812 C 501.429688 239.242188 498.9375 239.035156 496.441406 238.882812 C 493.941406 238.730469 491.441406 238.636719 488.941406 238.601562 C 486.4375 238.5625 483.9375 238.582031 481.433594 238.660156 C 478.933594 238.734375 476.433594 238.867188 473.941406 239.058594 C 471.445312 239.25 468.957031 239.496094 466.472656 239.800781 C 463.988281 240.101562 461.511719 240.464844 459.042969 240.878906 C 456.574219 241.296875 454.121094 241.769531 451.671875 242.296875 C 449.226562 242.824219 446.792969 243.40625 444.375 244.046875 C 441.957031 244.6875 439.550781 245.378906 437.164062 246.128906 C 434.777344 246.875 432.40625 247.679688 430.054688 248.535156 C 427.703125 249.390625 425.371094 250.300781 423.0625 251.261719 C 420.753906 252.226562 418.464844 253.242188 416.203125 254.308594 C 413.9375 255.375 411.699219 256.492188 409.488281 257.660156 C 407.273438 258.828125 405.089844 260.046875 402.929688 261.316406 C 400.773438 262.582031 398.648438 263.898438 396.550781 265.265625 C 394.453125 266.628906 392.386719 268.042969 390.351562 269.5 C 388.320312 270.960938 386.320312 272.464844 384.355469 274.015625 C 382.390625 275.5625 380.464844 277.15625 378.570312 278.796875 C 376.679688 280.433594 374.824219 282.113281 373.011719 283.835938 C 371.195312 285.558594 369.417969 287.320312 367.683594 289.125 C 365.949219 290.925781 364.253906 292.769531 362.601562 294.648438 C 360.953125 296.527344 359.34375 298.445312 357.78125 300.398438 C 356.214844 302.351562 354.695312 304.339844 353.222656 306.363281 C 351.75 308.386719 350.324219 310.441406 348.941406 312.527344 C 347.5625 314.617188 346.230469 316.734375 344.949219 318.882812 C 343.664062 321.03125 342.429688 323.207031 341.246094 325.410156 C 340.0625 327.617188 338.925781 329.84375 337.84375 332.101562 C 336.761719 334.359375 335.730469 336.636719 334.75 338.941406 C 333.773438 341.242188 332.847656 343.566406 331.972656 345.914062 C 331.101562 348.257812 330.28125 350.621094 329.515625 353.003906 C 328.75 355.386719 328.039062 357.785156 327.382812 360.199219 C 326.726562 362.613281 326.125 365.042969 325.578125 367.484375 C 325.03125 369.929688 324.542969 372.382812 324.109375 374.847656 C 323.675781 377.308594 323.296875 379.785156 322.976562 382.265625 C 322.652344 384.746094 322.390625 387.234375 322.179688 389.730469 C 321.972656 392.222656 321.820312 394.71875 321.726562 397.21875 C 321.632812 399.722656 321.59375 402.222656 321.613281 404.726562 C 321.632812 407.226562 321.710938 409.726562 321.84375 412.226562 C 321.976562 414.726562 322.167969 417.21875 322.414062 419.710938 C 322.660156 422.199219 322.964844 424.683594 323.324219 427.160156 C 323.683594 429.636719 324.101562 432.105469 324.574219 434.5625 C 325.046875 437.019531 325.574219 439.464844 326.15625 441.898438 C 326.742188 444.332031 327.378906 446.75 328.074219 449.15625 C 328.765625 451.558594 329.515625 453.945312 330.316406 456.316406 C 331.121094 458.6875 331.976562 461.039062 332.886719 463.371094 C 333.796875 465.699219 334.757812 468.011719 335.773438 470.296875 C 336.789062 472.585938 337.855469 474.847656 338.972656 477.085938 C 340.089844 479.324219 341.257812 481.539062 342.476562 483.722656 C 343.695312 485.910156 344.964844 488.066406 346.28125 490.195312 L 315.71875 520.628906 C 313.75 520.324219 311.769531 520.25 309.785156 520.410156 C 307.796875 520.570312 305.855469 520.957031 303.960938 521.574219 C 302.066406 522.191406 300.269531 523.019531 298.570312 524.0625 C 296.871094 525.101562 295.316406 526.324219 293.90625 527.730469 L 161.128906 660.890625 C 160.003906 662.015625 158.933594 663.191406 157.925781 664.421875 C 156.914062 665.652344 155.96875 666.929688 155.085938 668.253906 C 154.199219 669.578125 153.382812 670.941406 152.632812 672.34375 C 151.882812 673.75 151.203125 675.1875 150.59375 676.65625 C 149.984375 678.128906 149.449219 679.625 148.984375 681.148438 C 148.523438 682.671875 148.136719 684.214844 147.828125 685.773438 C 147.515625 687.335938 147.28125 688.910156 147.128906 690.492188 C 146.972656 692.078125 146.894531 693.664062 146.894531 695.257812 C 146.894531 696.847656 146.972656 698.4375 147.128906 700.019531 C 147.28125 701.605469 147.515625 703.175781 147.828125 704.738281 C 148.136719 706.300781 148.523438 707.839844 148.984375 709.363281 C 149.449219 710.886719 149.984375 712.386719 150.59375 713.855469 C 151.203125 715.328125 151.882812 716.761719 152.632812 718.167969 C 153.382812 719.570312 154.199219 720.933594 155.085938 722.257812 C 155.96875 723.582031 156.914062 724.859375 157.925781 726.089844 C 158.933594 727.320312 160.003906 728.496094 161.128906 729.625 C 162.253906 730.75 163.433594 731.816406 164.664062 732.828125 C 165.894531 733.835938 167.171875 734.785156 168.492188 735.667969 C 169.816406 736.550781 171.179688 737.371094 172.585938 738.121094 C 173.988281 738.871094 175.425781 739.550781 176.894531 740.160156 C 178.367188 740.769531 179.863281 741.304688 181.386719 741.765625 C 182.910156 742.226562 184.453125 742.613281 186.015625 742.925781 C 187.574219 743.234375 189.148438 743.46875 190.730469 743.625 C 192.316406 743.78125 193.902344 743.859375 195.496094 743.859375 C 197.085938 743.859375 198.675781 743.78125 200.257812 743.625 C 201.84375 743.46875 203.417969 743.234375 204.976562 742.925781 C 206.539062 742.613281 208.082031 742.226562 209.605469 741.765625 C 211.128906 741.304688 212.625 740.769531 214.09375 740.160156 C 215.566406 739.550781 217.003906 738.871094 218.40625 738.121094 C 219.808594 737.371094 221.175781 736.550781 222.496094 735.667969 C 223.820312 734.785156 225.097656 733.835938 226.328125 732.828125 C 227.558594 731.816406 228.738281 730.75 229.863281 729.625 L 362.511719 596.847656 C 363.910156 595.429688 365.121094 593.871094 366.148438 592.167969 C 367.179688 590.464844 367.996094 588.667969 368.601562 586.773438 C 369.207031 584.878906 369.585938 582.9375 369.734375 580.957031 C 369.882812 578.972656 369.800781 577 369.488281 575.035156 L 400.558594 544.472656 C 402.683594 545.789062 404.84375 547.054688 407.027344 548.273438 C 409.214844 549.492188 411.425781 550.660156 413.664062 551.78125 C 415.902344 552.898438 418.167969 553.964844 420.453125 554.980469 C 422.742188 555.992188 425.050781 556.957031 427.382812 557.867188 C 429.714844 558.773438 432.066406 559.632812 434.433594 560.433594 C 436.804688 561.238281 439.191406 561.984375 441.597656 562.679688 C 444 563.371094 446.421875 564.011719 448.855469 564.59375 C 451.289062 565.179688 453.734375 565.707031 456.191406 566.179688 C 458.648438 566.652344 461.113281 567.066406 463.589844 567.425781 C 466.066406 567.789062 468.550781 568.089844 471.042969 568.339844 C 473.53125 568.585938 476.027344 568.773438 478.523438 568.910156 C 481.023438 569.042969 483.523438 569.117188 486.027344 569.136719 C 488.527344 569.15625 491.03125 569.121094 493.53125 569.023438 C 496.03125 568.929688 498.53125 568.78125 501.023438 568.570312 C 503.515625 568.363281 506.003906 568.097656 508.488281 567.777344 C 510.96875 567.457031 513.441406 567.078125 515.90625 566.644531 C 518.371094 566.210938 520.824219 565.71875 523.265625 565.171875 C 525.707031 564.628906 528.136719 564.027344 530.550781 563.371094 C 532.964844 562.714844 535.367188 562.003906 537.746094 561.238281 C 540.128906 560.472656 542.496094 559.652344 544.839844 558.777344 C 547.183594 557.90625 549.507812 556.980469 551.8125 556 C 554.113281 555.019531 556.394531 553.988281 558.648438 552.90625 C 560.90625 551.824219 563.136719 550.691406 565.339844 549.507812 C 567.546875 548.320312 569.722656 547.085938 571.871094 545.804688 C 574.019531 544.519531 576.136719 543.1875 578.222656 541.808594 C 580.3125 540.429688 582.367188 539 584.386719 537.527344 C 586.410156 536.054688 588.398438 534.535156 590.351562 532.972656 C 592.304688 531.40625 594.222656 529.800781 596.101562 528.148438 C 597.984375 526.496094 599.824219 524.804688 601.628906 523.066406 C 603.429688 521.332031 605.195312 519.558594 606.917969 517.742188 C 608.636719 515.925781 610.320312 514.074219 611.957031 512.179688 C 613.59375 510.289062 615.1875 508.359375 616.738281 506.394531 C 618.289062 504.429688 619.792969 502.433594 621.25 500.398438 C 622.710938 498.367188 624.121094 496.300781 625.488281 494.203125 C 626.851562 492.105469 628.167969 489.976562 629.4375 487.820312 C 630.703125 485.664062 631.921875 483.476562 633.09375 481.265625 C 634.261719 479.050781 635.378906 476.8125 636.445312 474.550781 C 637.511719 472.285156 638.527344 470 639.488281 467.6875 C 640.449219 465.378906 641.359375 463.046875 642.214844 460.695312 C 643.074219 458.347656 643.875 455.976562 644.625 453.589844 C 645.371094 451.199219 646.066406 448.796875 646.703125 446.378906 C 647.34375 443.957031 647.925781 441.523438 648.457031 439.078125 C 648.984375 436.632812 649.457031 434.175781 649.871094 431.707031 C 650.289062 429.242188 650.648438 426.765625 650.953125 424.28125 C 651.257812 421.796875 651.503906 419.308594 651.691406 416.8125 C 651.882812 414.316406 652.015625 411.816406 652.09375 409.316406 C 652.167969 406.816406 652.1875 404.3125 652.152344 401.8125 C 652.113281 399.308594 652.019531 396.808594 651.867188 394.3125 C 651.714844 391.8125 651.507812 389.320312 651.242188 386.832031 C 650.980469 384.34375 650.65625 381.863281 650.28125 379.390625 C 649.902344 376.914062 649.46875 374.449219 648.976562 371.996094 C 648.488281 369.542969 647.941406 367.101562 647.339844 364.671875 C 646.738281 362.242188 646.082031 359.828125 645.371094 357.429688 C 644.660156 355.03125 643.894531 352.648438 643.074219 350.285156 C 642.257812 347.917969 641.382812 345.574219 640.457031 343.25 C 639.53125 340.925781 638.550781 338.621094 637.519531 336.34375 C 636.488281 334.0625 635.40625 331.808594 634.273438 329.578125 C 633.136719 327.347656 631.953125 325.140625 630.71875 322.964844 C 629.484375 320.789062 628.203125 318.640625 626.871094 316.523438 C 625.539062 314.402344 624.160156 312.316406 622.730469 310.261719 C 621.304688 308.207031 619.832031 306.183594 618.3125 304.195312 C 616.792969 302.207031 615.230469 300.253906 613.621094 298.335938 C 612.011719 296.417969 610.363281 294.539062 608.667969 292.695312 C 606.972656 290.855469 605.238281 289.050781 603.464844 287.289062 Z M 211.855469 711.617188 C 210.792969 712.707031 209.632812 713.683594 208.375 714.542969 C 207.113281 715.402344 205.78125 716.125 204.375 716.714844 C 202.96875 717.300781 201.519531 717.742188 200.023438 718.039062 C 198.527344 718.332031 197.019531 718.472656 195.496094 718.464844 C 194.734375 718.464844 193.976562 718.425781 193.222656 718.351562 C 192.464844 718.277344 191.714844 718.164062 190.96875 718.015625 C 190.222656 717.871094 189.484375 717.683594 188.757812 717.464844 C 188.03125 717.242188 187.316406 716.988281 186.613281 716.695312 C 185.914062 716.40625 185.226562 716.082031 184.554688 715.722656 C 183.886719 715.363281 183.234375 714.976562 182.601562 714.550781 C 181.96875 714.128906 181.359375 713.679688 180.773438 713.195312 C 180.183594 712.714844 179.621094 712.203125 179.085938 711.667969 C 178.546875 711.128906 178.039062 710.566406 177.554688 709.980469 C 177.074219 709.390625 176.621094 708.78125 176.199219 708.148438 C 175.777344 707.515625 175.386719 706.867188 175.027344 706.195312 C 174.671875 705.527344 174.34375 704.839844 174.054688 704.136719 C 173.765625 703.433594 173.507812 702.71875 173.289062 701.992188 C 173.066406 701.265625 172.882812 700.527344 172.734375 699.785156 C 172.585938 699.039062 172.472656 698.289062 172.398438 697.53125 C 172.324219 696.773438 172.289062 696.015625 172.289062 695.257812 C 172.277344 693.730469 172.417969 692.222656 172.714844 690.726562 C 173.007812 689.230469 173.449219 687.78125 174.039062 686.375 C 174.625 684.96875 175.351562 683.636719 176.207031 682.378906 C 177.066406 681.117188 178.042969 679.957031 179.136719 678.898438 L 311.785156 546.121094 L 344.632812 578.964844 Z M 378.871094 529.761719 L 355.03125 553.601562 L 337.148438 535.722656 L 360.992188 511.878906 Z M 585.203125 502.875 C 583.585938 504.488281 581.933594 506.0625 580.242188 507.59375 C 578.550781 509.128906 576.820312 510.617188 575.058594 512.066406 C 573.292969 513.515625 571.492188 514.917969 569.660156 516.277344 C 567.824219 517.636719 565.960938 518.949219 564.0625 520.21875 C 562.164062 521.484375 560.234375 522.707031 558.277344 523.878906 C 556.316406 525.050781 554.332031 526.175781 552.320312 527.253906 C 550.304688 528.328125 548.265625 529.355469 546.203125 530.328125 C 544.140625 531.304688 542.050781 532.230469 539.941406 533.101562 C 537.835938 533.976562 535.703125 534.796875 533.554688 535.566406 C 531.40625 536.335938 529.238281 537.050781 527.054688 537.710938 C 524.871094 538.375 522.671875 538.980469 520.457031 539.535156 C 518.242188 540.089844 516.015625 540.589844 513.777344 541.035156 C 511.535156 541.480469 509.289062 541.871094 507.03125 542.203125 C 504.773438 542.539062 502.507812 542.816406 500.234375 543.042969 C 497.964844 543.265625 495.6875 543.433594 493.40625 543.542969 C 491.128906 543.65625 488.847656 543.710938 486.5625 543.710938 C 484.28125 543.710938 482 543.652344 479.71875 543.542969 C 477.4375 543.429688 475.164062 543.261719 472.890625 543.039062 C 470.621094 542.8125 468.355469 542.535156 466.097656 542.199219 C 463.839844 541.863281 461.589844 541.472656 459.351562 541.027344 C 457.113281 540.582031 454.886719 540.082031 452.671875 539.527344 C 450.457031 538.972656 448.257812 538.363281 446.074219 537.699219 C 443.890625 537.035156 441.722656 536.320312 439.574219 535.550781 C 437.425781 534.78125 435.296875 533.960938 433.1875 533.085938 C 431.078125 532.210938 428.992188 531.289062 426.925781 530.3125 C 424.863281 529.335938 422.824219 528.308594 420.8125 527.230469 C 418.800781 526.15625 416.8125 525.03125 414.855469 523.855469 C 412.898438 522.683594 410.96875 521.460938 409.074219 520.195312 C 407.175781 518.925781 405.308594 517.609375 403.476562 516.25 C 401.640625 514.890625 399.84375 513.488281 398.078125 512.039062 C 396.316406 510.589844 394.585938 509.097656 392.894531 507.566406 C 391.203125 506.035156 389.550781 504.460938 387.9375 502.84375 C 386.324219 501.230469 384.75 499.578125 383.21875 497.886719 C 381.683594 496.195312 380.195312 494.46875 378.746094 492.703125 C 377.296875 490.9375 375.894531 489.136719 374.535156 487.304688 C 373.175781 485.472656 371.859375 483.605469 370.59375 481.707031 C 369.324219 479.808594 368.101562 477.882812 366.929688 475.921875 C 365.757812 473.964844 364.632812 471.980469 363.554688 469.964844 C 362.480469 467.953125 361.453125 465.914062 360.476562 463.851562 C 359.5 461.785156 358.578125 459.699219 357.703125 457.589844 C 356.832031 455.484375 356.007812 453.351562 355.238281 451.203125 C 354.472656 449.054688 353.753906 446.886719 353.09375 444.703125 C 352.429688 442.519531 351.820312 440.320312 351.265625 438.105469 C 350.710938 435.890625 350.210938 433.664062 349.765625 431.425781 C 349.320312 429.1875 348.929688 426.9375 348.597656 424.679688 C 348.261719 422.421875 347.984375 420.15625 347.757812 417.886719 C 347.535156 415.613281 347.367188 413.335938 347.253906 411.058594 C 347.144531 408.777344 347.085938 406.496094 347.085938 404.214844 C 347.085938 401.929688 347.144531 399.648438 347.253906 397.367188 C 347.367188 395.089844 347.535156 392.8125 347.757812 390.542969 C 347.980469 388.269531 348.261719 386.003906 348.597656 383.746094 C 348.929688 381.488281 349.320312 379.238281 349.765625 377 C 350.210938 374.761719 350.710938 372.535156 351.265625 370.320312 C 351.820312 368.105469 352.429688 365.90625 353.09375 363.722656 C 353.753906 361.539062 354.472656 359.371094 355.238281 357.222656 C 356.007812 355.074219 356.832031 352.945312 357.703125 350.835938 C 358.578125 348.726562 359.5 346.640625 360.476562 344.574219 C 361.453125 342.511719 362.480469 340.472656 363.554688 338.460938 C 364.632812 336.445312 365.757812 334.460938 366.929688 332.503906 C 368.101562 330.546875 369.324219 328.617188 370.59375 326.71875 C 371.859375 324.820312 373.175781 322.957031 374.535156 321.121094 C 375.894531 319.289062 377.296875 317.488281 378.746094 315.722656 C 380.195312 313.960938 381.683594 312.230469 383.21875 310.539062 C 384.75 308.847656 386.324219 307.195312 387.9375 305.582031 C 389.550781 303.964844 391.203125 302.394531 392.894531 300.859375 C 394.585938 299.328125 396.316406 297.835938 398.078125 296.386719 C 399.84375 294.9375 401.640625 293.535156 403.476562 292.175781 C 405.308594 290.816406 407.175781 289.5 409.074219 288.234375 C 410.96875 286.964844 412.898438 285.742188 414.855469 284.570312 C 416.8125 283.394531 418.800781 282.269531 420.8125 281.195312 C 422.824219 280.117188 424.863281 279.089844 426.929688 278.117188 C 428.992188 277.140625 431.078125 276.214844 433.1875 275.339844 C 435.296875 274.464844 437.425781 273.644531 439.574219 272.875 C 441.722656 272.105469 443.890625 271.390625 446.074219 270.726562 C 448.257812 270.0625 450.457031 269.457031 452.671875 268.902344 C 454.886719 268.34375 457.113281 267.84375 459.351562 267.398438 C 461.589844 266.953125 463.839844 266.5625 466.097656 266.226562 C 468.355469 265.894531 470.621094 265.613281 472.890625 265.390625 C 475.164062 265.164062 477.4375 264.996094 479.71875 264.882812 C 482 264.773438 484.28125 264.714844 486.5625 264.714844 C 488.847656 264.714844 491.128906 264.769531 493.40625 264.882812 C 495.6875 264.992188 497.964844 265.160156 500.234375 265.386719 C 502.507812 265.609375 504.773438 265.886719 507.03125 266.222656 C 509.289062 266.554688 511.535156 266.945312 513.777344 267.390625 C 516.015625 267.835938 518.242188 268.335938 520.457031 268.890625 C 522.671875 269.445312 524.871094 270.050781 527.054688 270.714844 C 529.238281 271.375 531.40625 272.09375 533.554688 272.859375 C 535.703125 273.628906 537.835938 274.449219 539.941406 275.324219 C 542.050781 276.195312 544.140625 277.121094 546.203125 278.097656 C 548.265625 279.074219 550.304688 280.097656 552.320312 281.171875 C 554.332031 282.25 556.316406 283.375 558.277344 284.546875 C 560.234375 285.71875 562.164062 286.941406 564.0625 288.207031 C 565.960938 289.476562 567.824219 290.789062 569.660156 292.148438 C 571.492188 293.507812 573.292969 294.914062 575.058594 296.359375 C 576.820312 297.808594 578.550781 299.296875 580.242188 300.832031 C 581.933594 302.363281 583.585938 303.9375 585.203125 305.550781 C 586.832031 307.15625 588.421875 308.800781 589.96875 310.484375 C 591.519531 312.171875 593.023438 313.890625 594.488281 315.652344 C 595.953125 317.410156 597.371094 319.203125 598.746094 321.035156 C 600.121094 322.863281 601.449219 324.726562 602.730469 326.621094 C 604.011719 328.515625 605.246094 330.441406 606.433594 332.398438 C 607.621094 334.355469 608.757812 336.339844 609.84375 338.355469 C 610.933594 340.367188 611.972656 342.40625 612.957031 344.46875 C 613.945312 346.535156 614.882812 348.621094 615.765625 350.734375 C 616.648438 352.84375 617.480469 354.976562 618.257812 357.125 C 619.035156 359.277344 619.761719 361.449219 620.429688 363.636719 C 621.101562 365.824219 621.71875 368.027344 622.277344 370.246094 C 622.839844 372.464844 623.34375 374.695312 623.796875 376.9375 C 624.246094 379.183594 624.640625 381.433594 624.980469 383.699219 C 625.320312 385.960938 625.601562 388.230469 625.828125 390.507812 C 626.054688 392.785156 626.226562 395.066406 626.339844 397.351562 C 626.453125 399.636719 626.507812 401.925781 626.507812 404.214844 C 626.507812 406.5 626.453125 408.789062 626.339844 411.074219 C 626.226562 413.359375 626.054688 415.640625 625.828125 417.917969 C 625.601562 420.195312 625.320312 422.464844 624.980469 424.726562 C 624.640625 426.992188 624.246094 429.246094 623.796875 431.488281 C 623.34375 433.730469 622.839844 435.960938 622.277344 438.179688 C 621.71875 440.398438 621.101562 442.601562 620.429688 444.789062 C 619.761719 446.976562 619.035156 449.148438 618.257812 451.300781 C 617.480469 453.453125 616.648438 455.582031 615.765625 457.695312 C 614.882812 459.804688 613.945312 461.890625 612.957031 463.957031 C 611.972656 466.019531 610.933594 468.058594 609.84375 470.074219 C 608.757812 472.085938 607.621094 474.070312 606.433594 476.027344 C 605.246094 477.984375 604.011719 479.910156 602.730469 481.804688 C 601.449219 483.699219 600.121094 485.5625 598.746094 487.390625 C 597.371094 489.222656 595.953125 491.015625 594.488281 492.773438 C 593.023438 494.535156 591.519531 496.257812 589.96875 497.941406 C 588.421875 499.625 586.832031 501.269531 585.203125 502.875 Z M 585.203125 502.875 " fill-opacity="1" fill-rule="nonzero"/><path fill="#ffffff" d="M 567.195312 323.558594 C 566.59375 323.042969 565.949219 322.589844 565.261719 322.195312 C 564.574219 321.800781 563.859375 321.472656 563.113281 321.210938 C 562.363281 320.953125 561.597656 320.765625 560.816406 320.648438 C 560.03125 320.53125 559.246094 320.488281 558.457031 320.519531 C 557.664062 320.546875 556.882812 320.652344 556.113281 320.828125 C 555.339844 321.007812 554.59375 321.253906 553.867188 321.570312 C 553.140625 321.886719 552.453125 322.269531 551.796875 322.714844 C 551.144531 323.160156 550.539062 323.664062 549.976562 324.222656 C 549.417969 324.78125 548.914062 325.390625 548.46875 326.042969 C 548.023438 326.695312 547.640625 327.386719 547.324219 328.113281 C 547.007812 328.835938 546.761719 329.585938 546.582031 330.355469 C 546.40625 331.128906 546.304688 331.910156 546.273438 332.699219 C 546.242188 333.492188 546.285156 334.277344 546.402344 335.0625 C 546.519531 335.84375 546.707031 336.609375 546.96875 337.355469 C 547.226562 338.105469 547.554688 338.820312 547.949219 339.507812 C 548.34375 340.195312 548.796875 340.839844 549.3125 341.4375 C 550.339844 342.464844 551.339844 343.519531 552.316406 344.59375 C 553.292969 345.671875 554.242188 346.769531 555.164062 347.894531 C 556.085938 349.015625 556.980469 350.164062 557.84375 351.328125 C 558.710938 352.496094 559.546875 353.683594 560.355469 354.890625 C 561.160156 356.101562 561.9375 357.328125 562.683594 358.574219 C 563.433594 359.820312 564.148438 361.082031 564.832031 362.363281 C 565.519531 363.644531 566.171875 364.941406 566.792969 366.257812 C 567.414062 367.570312 568.003906 368.898438 568.558594 370.238281 C 569.113281 371.582031 569.636719 372.9375 570.125 374.304688 C 570.617188 375.671875 571.070312 377.050781 571.492188 378.441406 C 571.914062 379.832031 572.300781 381.234375 572.65625 382.640625 C 573.007812 384.050781 573.328125 385.46875 573.609375 386.894531 C 573.894531 388.320312 574.140625 389.75 574.355469 391.1875 C 574.570312 392.625 574.746094 394.066406 574.890625 395.511719 C 575.03125 396.957031 575.136719 398.40625 575.210938 399.855469 C 575.28125 401.308594 575.316406 402.761719 575.316406 404.214844 C 575.316406 405.667969 575.28125 407.117188 575.210938 408.570312 C 575.136719 410.019531 575.03125 411.46875 574.890625 412.914062 C 574.746094 414.359375 574.570312 415.800781 574.355469 417.238281 C 574.140625 418.675781 573.894531 420.109375 573.609375 421.53125 C 573.328125 422.957031 573.007812 424.375 572.65625 425.785156 C 572.300781 427.195312 571.914062 428.59375 571.492188 429.984375 C 571.070312 431.375 570.617188 432.753906 570.125 434.121094 C 569.636719 435.488281 569.113281 436.84375 568.558594 438.1875 C 568.003906 439.527344 567.414062 440.855469 566.792969 442.171875 C 566.171875 443.484375 565.519531 444.78125 564.832031 446.0625 C 564.148438 447.34375 563.433594 448.605469 562.683594 449.851562 C 561.9375 451.097656 561.160156 452.328125 560.355469 453.535156 C 559.546875 454.742188 558.710938 455.929688 557.84375 457.097656 C 556.980469 458.265625 556.085938 459.410156 555.164062 460.53125 C 554.242188 461.65625 553.292969 462.753906 552.316406 463.832031 C 551.339844 464.90625 550.339844 465.960938 549.3125 466.988281 C 548.722656 467.574219 548.195312 468.214844 547.730469 468.90625 C 547.265625 469.59375 546.871094 470.324219 546.550781 471.09375 C 546.230469 471.863281 545.984375 472.65625 545.820312 473.472656 C 545.65625 474.289062 545.570312 475.113281 545.570312 475.945312 C 545.566406 476.777344 545.644531 477.601562 545.804688 478.421875 C 545.964844 479.238281 546.203125 480.03125 546.519531 480.800781 C 546.835938 481.574219 547.222656 482.304688 547.683594 483 C 548.144531 483.695312 548.667969 484.335938 549.253906 484.925781 C 549.839844 485.519531 550.480469 486.046875 551.171875 486.511719 C 551.859375 486.976562 552.589844 487.371094 553.359375 487.691406 C 554.128906 488.011719 554.917969 488.257812 555.734375 488.421875 C 556.550781 488.585938 557.375 488.671875 558.210938 488.675781 C 559.042969 488.679688 559.867188 488.601562 560.683594 488.441406 C 561.503906 488.28125 562.296875 488.042969 563.066406 487.726562 C 563.839844 487.414062 564.570312 487.023438 565.265625 486.566406 C 565.960938 486.105469 566.601562 485.582031 567.195312 484.996094 C 568.515625 483.675781 569.804688 482.320312 571.058594 480.9375 C 572.3125 479.554688 573.53125 478.140625 574.71875 476.695312 C 575.902344 475.25 577.054688 473.777344 578.167969 472.277344 C 579.28125 470.777344 580.355469 469.25 581.394531 467.699219 C 582.429688 466.144531 583.429688 464.566406 584.390625 462.964844 C 585.351562 461.363281 586.273438 459.738281 587.152344 458.089844 C 588.035156 456.441406 588.875 454.773438 589.671875 453.085938 C 590.472656 451.394531 591.230469 449.6875 591.945312 447.960938 C 592.660156 446.238281 593.332031 444.492188 593.960938 442.734375 C 594.589844 440.976562 595.175781 439.203125 595.71875 437.414062 C 596.261719 435.625 596.761719 433.828125 597.214844 432.015625 C 597.667969 430.203125 598.078125 428.378906 598.441406 426.546875 C 598.808594 424.714844 599.125 422.875 599.398438 421.027344 C 599.675781 419.179688 599.902344 417.324219 600.085938 415.464844 C 600.269531 413.605469 600.40625 411.742188 600.5 409.878906 C 600.589844 408.011719 600.636719 406.144531 600.636719 404.277344 C 600.636719 402.410156 600.589844 400.542969 600.5 398.675781 C 600.40625 396.808594 600.269531 394.945312 600.085938 393.085938 C 599.902344 391.226562 599.675781 389.375 599.398438 387.527344 C 599.125 385.679688 598.808594 383.835938 598.441406 382.003906 C 598.078125 380.171875 597.667969 378.351562 597.214844 376.539062 C 596.761719 374.726562 596.261719 372.925781 595.71875 371.136719 C 595.175781 369.351562 594.589844 367.578125 593.960938 365.816406 C 593.332031 364.058594 592.660156 362.316406 591.945312 360.589844 C 591.230469 358.863281 590.472656 357.15625 589.671875 355.46875 C 588.875 353.78125 588.035156 352.109375 587.152344 350.464844 C 586.273438 348.816406 585.351562 347.191406 584.390625 345.589844 C 583.429688 343.988281 582.429688 342.410156 581.394531 340.855469 C 580.355469 339.300781 579.28125 337.773438 578.167969 336.273438 C 577.054688 334.773438 575.902344 333.300781 574.71875 331.859375 C 573.53125 330.414062 572.3125 329 571.058594 327.617188 C 569.804688 326.230469 568.515625 324.878906 567.195312 323.558594 Z M 567.195312 323.558594 " fill-opacity="1" fill-rule="nonzero"/></svg>