<svg xmlns="http://www.w3.org/2000/svg" xmlns:xlink="http://www.w3.org/1999/xlink" width="1080" zoomAndPan="magnify" viewBox="0 0 810 1012.49997" height="1350" preserveAspectRatio="xMidYMid meet" version="1.0"><defs><clipPath id="3e8ea4a00e"><path d="M 0.199219 80.960938 L 809.800781 80.960938 L 809.800781 890.558594 L 0.199219 890.558594 Z M 0.199219 80.960938 " clip-rule="nonzero"/></clipPath><clipPath id="5847bc9b97"><path d="M 405 80.960938 C 181.433594 80.960938 0.199219 262.195312 0.199219 485.761719 C 0.199219 709.324219 181.433594 890.558594 405 890.558594 C 628.566406 890.558594 809.800781 709.324219 809.800781 485.761719 C 809.800781 262.195312 628.566406 80.960938 405 80.960938 Z M 405 80.960938 " clip-rule="nonzero"/></clipPath><clipPath id="27c27466ca"><path d="M 0.199219 0.960938 L 809.800781 0.960938 L 809.800781 810.558594 L 0.199219 810.558594 Z M 0.199219 0.960938 " clip-rule="nonzero"/></clipPath><clipPath id="73a6777409"><path d="M 405 0.960938 C 181.433594 0.960938 0.199219 182.195312 0.199219 405.761719 C 0.199219 629.324219 181.433594 810.558594 405 810.558594 C 628.566406 810.558594 809.800781 629.324219 809.800781 405.761719 C 809.800781 182.195312 628.566406 0.960938 405 0.960938 Z M 405 0.960938 " clip-rule="nonzero"/></clipPath><clipPath id="50869a954c"><rect x="0" width="810" y="0" height="811"/></clipPath><clipPath id="800252e43f"><path d="M 233.707031 202.046875 L 576.289062 202.046875 L 576.289062 670 L 233.707031 670 Z M 233.707031 202.046875 " clip-rule="nonzero"/></clipPath></defs><g clip-path="url(#3e8ea4a00e)"><g clip-path="url(#5847bc9b97)"><g transform="matrix(1, 0, 0, 1, 0.000000000000000028, 80)"><g clip-path="url(#50869a954c)"><g clip-path="url(#27c27466ca)"><g clip-path="url(#73a6777409)"><path fill="#2fa275" d="M 0.199219 0.960938 L 809.800781 0.960938 L 809.800781 810.558594 L 0.199219 810.558594 Z M 0.199219 0.960938 " fill-opacity="1" fill-rule="nonzero"/></g></g></g></g></g></g><g clip-path="url(#800252e43f)"><path fill="#ffffff" d="M 405.054688 230.140625 C 484.253906 230.140625 548.691406 294.566406 548.691406 373.753906 C 548.691406 436 453.371094 571.546875 405.054688 633.726562 C 356.761719 571.546875 261.441406 436 261.441406 373.753906 C 261.441406 294.566406 325.878906 230.140625 405.054688 230.140625 Z M 405.054688 669.902344 C 409.238281 669.902344 413.203125 668.007812 415.835938 664.742188 C 422.382812 656.609375 576.378906 464.574219 576.378906 373.753906 C 576.378906 279.296875 499.527344 202.449219 405.054688 202.449219 C 310.605469 202.449219 233.753906 279.296875 233.753906 373.753906 C 233.753906 464.574219 387.730469 656.609375 394.273438 664.742188 C 396.90625 668.007812 400.871094 669.902344 405.054688 669.902344 " fill-opacity="1" fill-rule="nonzero"/></g><path fill="#ffffff" d="M 405.039062 382.34375 C 376.789062 382.34375 353.820312 359.359375 353.820312 331.109375 C 353.820312 302.859375 376.789062 279.882812 405.039062 279.882812 C 433.289062 279.882812 456.273438 302.859375 456.273438 331.109375 C 456.273438 359.359375 433.289062 382.34375 405.039062 382.34375 Z M 483.96875 331.109375 C 483.96875 287.59375 448.5625 252.191406 405.039062 252.191406 C 361.539062 252.191406 326.128906 287.59375 326.128906 331.109375 C 326.128906 374.632812 361.539062 410.039062 405.039062 410.039062 C 448.5625 410.039062 483.96875 374.632812 483.96875 331.109375 " fill-opacity="1" fill-rule="nonzero"/><path fill="#ffffff" d="M 506.484375 611.082031 C 499.578125 607.789062 491.324219 610.777344 488.042969 617.664062 C 484.757812 624.574219 487.714844 632.835938 494.621094 636.105469 C 519.824219 648.046875 534.285156 663.914062 534.285156 679.652344 C 534.285156 708.78125 481.207031 741.238281 405.054688 741.238281 C 328.902344 741.238281 275.847656 708.78125 275.847656 679.652344 C 275.847656 663.914062 290.308594 648.046875 315.511719 636.105469 C 322.417969 632.835938 325.375 624.574219 322.089844 617.664062 C 318.828125 610.757812 310.554688 607.785156 303.648438 611.082031 C 268.382812 627.785156 248.15625 652.78125 248.15625 679.652344 C 248.15625 729.714844 317.078125 768.933594 405.054688 768.933594 C 493.054688 768.933594 561.976562 729.714844 561.976562 679.652344 C 561.976562 652.78125 541.75 627.785156 506.484375 611.082031 " fill-opacity="1" fill-rule="nonzero"/></svg>