<svg xmlns="http://www.w3.org/2000/svg" xmlns:xlink="http://www.w3.org/1999/xlink" width="1080" zoomAndPan="magnify" viewBox="0 0 810 1012.49997" height="1350" preserveAspectRatio="xMidYMid meet" version="1.0"><defs><clipPath id="f48dacbd5e"><path d="M 0.199219 101.199219 L 809.800781 101.199219 L 809.800781 910.800781 L 0.199219 910.800781 Z M 0.199219 101.199219 " clip-rule="nonzero"/></clipPath><clipPath id="e8ee049c90"><path d="M 405 101.199219 C 181.433594 101.199219 0.199219 282.433594 0.199219 506 C 0.199219 729.566406 181.433594 910.800781 405 910.800781 C 628.566406 910.800781 809.800781 729.566406 809.800781 506 C 809.800781 282.433594 628.566406 101.199219 405 101.199219 Z M 405 101.199219 " clip-rule="nonzero"/></clipPath><clipPath id="e044122539"><path d="M 0.199219 0.199219 L 809.800781 0.199219 L 809.800781 809.800781 L 0.199219 809.800781 Z M 0.199219 0.199219 " clip-rule="nonzero"/></clipPath><clipPath id="edabc4b083"><path d="M 405 0.199219 C 181.433594 0.199219 0.199219 181.433594 0.199219 405 C 0.199219 628.566406 181.433594 809.800781 405 809.800781 C 628.566406 809.800781 809.800781 628.566406 809.800781 405 C 809.800781 181.433594 628.566406 0.199219 405 0.199219 Z M 405 0.199219 " clip-rule="nonzero"/></clipPath><clipPath id="3a3b4b3969"><rect x="0" width="810" y="0" height="810"/></clipPath><clipPath id="a06adf8023"><path d="M 268.789062 390.089844 L 541.210938 390.089844 L 541.210938 453.65625 L 268.789062 453.65625 Z M 268.789062 390.089844 " clip-rule="nonzero"/></clipPath><clipPath id="93d36337eb"><path d="M 0.789062 0.0898438 L 273.210938 0.0898438 L 273.210938 63.65625 L 0.789062 63.65625 Z M 0.789062 0.0898438 " clip-rule="nonzero"/></clipPath><clipPath id="b1c34fe744"><rect x="0" width="274" y="0" height="64"/></clipPath></defs><g clip-path="url(#f48dacbd5e)"><g clip-path="url(#e8ee049c90)"><g transform="matrix(1, 0, 0, 1, 0.000000000000000028, 101)"><g clip-path="url(#3a3b4b3969)"><g clip-path="url(#e044122539)"><g clip-path="url(#edabc4b083)"><path fill="#005d50" d="M 0.199219 0.199219 L 809.800781 0.199219 L 809.800781 809.800781 L 0.199219 809.800781 Z M 0.199219 0.199219 " fill-opacity="1" fill-rule="nonzero"/></g></g></g></g></g></g><g clip-path="url(#a06adf8023)"><g transform="matrix(1, 0, 0, 1, 268, 390)"><g clip-path="url(#b1c34fe744)"><g clip-path="url(#93d36337eb)"><path fill="#005d50" d="M 0.789062 0.0898438 L 273.179688 0.0898438 L 273.179688 63.65625 L 0.789062 63.65625 Z M 0.789062 0.0898438 " fill-opacity="1" fill-rule="nonzero"/></g></g></g></g><path fill="#ffffff" d="M 413.554688 277.660156 L 396.734375 277.660156 C 396.734375 277.660156 348.316406 276.789062 352.375 316.804688 L 374.410156 587.324219 C 374.410156 587.324219 376.730469 629.367188 405.144531 632.558594 C 433.269531 629.367188 435.878906 587.324219 435.878906 587.324219 L 457.914062 316.804688 C 461.683594 276.789062 413.554688 277.660156 413.554688 277.660156 Z M 413.554688 277.660156 " fill-opacity="1" fill-rule="nonzero"/><path fill="#ffffff" d="M 453.855469 686.199219 C 453.855469 687.800781 453.777344 689.402344 453.621094 691 C 453.460938 692.597656 453.226562 694.183594 452.914062 695.757812 C 452.601562 697.332031 452.210938 698.886719 451.746094 700.421875 C 451.28125 701.957031 450.738281 703.46875 450.125 704.949219 C 449.511719 706.433594 448.828125 707.882812 448.070312 709.296875 C 447.3125 710.710938 446.488281 712.085938 445.597656 713.421875 C 444.707031 714.753906 443.75 716.042969 442.734375 717.285156 C 441.714844 718.523438 440.636719 719.710938 439.503906 720.847656 C 438.367188 721.980469 437.179688 723.058594 435.941406 724.078125 C 434.699219 725.09375 433.414062 726.050781 432.078125 726.941406 C 430.742188 727.832031 429.367188 728.65625 427.953125 729.414062 C 426.539062 730.167969 425.089844 730.855469 423.605469 731.46875 C 422.125 732.082031 420.613281 732.625 419.078125 733.089844 C 417.542969 733.554688 415.988281 733.945312 414.414062 734.257812 C 412.839844 734.570312 411.253906 734.804688 409.65625 734.964844 C 408.058594 735.121094 406.460938 735.199219 404.855469 735.199219 C 403.25 735.199219 401.648438 735.121094 400.050781 734.964844 C 398.453125 734.804688 396.867188 734.570312 395.292969 734.257812 C 393.722656 733.945312 392.164062 733.554688 390.628906 733.089844 C 389.09375 732.625 387.585938 732.082031 386.101562 731.46875 C 384.621094 730.855469 383.171875 730.167969 381.753906 729.414062 C 380.339844 728.65625 378.964844 727.832031 377.632812 726.941406 C 376.296875 726.050781 375.007812 725.09375 373.769531 724.078125 C 372.527344 723.058594 371.339844 721.980469 370.207031 720.847656 C 369.070312 719.710938 367.996094 718.523438 366.976562 717.285156 C 365.957031 716.042969 365.003906 714.753906 364.113281 713.421875 C 363.21875 712.085938 362.394531 710.710938 361.640625 709.296875 C 360.882812 707.882812 360.199219 706.433594 359.582031 704.949219 C 358.96875 703.46875 358.429688 701.957031 357.964844 700.421875 C 357.496094 698.886719 357.109375 697.332031 356.792969 695.757812 C 356.480469 694.183594 356.246094 692.597656 356.089844 691 C 355.933594 689.402344 355.851562 687.800781 355.851562 686.199219 C 355.851562 684.59375 355.933594 682.992188 356.089844 681.394531 C 356.246094 679.796875 356.480469 678.210938 356.792969 676.636719 C 357.109375 675.0625 357.496094 673.507812 357.964844 671.972656 C 358.429688 670.4375 358.96875 668.929688 359.582031 667.445312 C 360.199219 665.964844 360.882812 664.515625 361.640625 663.097656 C 362.394531 661.683594 363.21875 660.308594 364.113281 658.972656 C 365.003906 657.640625 365.957031 656.351562 366.976562 655.113281 C 367.996094 653.871094 369.070312 652.683594 370.207031 651.546875 C 371.339844 650.414062 372.527344 649.335938 373.769531 648.320312 C 375.007812 647.300781 376.296875 646.347656 377.632812 645.453125 C 378.964844 644.5625 380.339844 643.738281 381.753906 642.984375 C 383.171875 642.226562 384.621094 641.539062 386.101562 640.925781 C 387.585938 640.3125 389.09375 639.773438 390.628906 639.304688 C 392.164062 638.839844 393.722656 638.453125 395.292969 638.136719 C 396.867188 637.824219 398.453125 637.589844 400.050781 637.433594 C 401.648438 637.273438 403.25 637.195312 404.855469 637.195312 C 406.460938 637.195312 408.058594 637.273438 409.65625 637.433594 C 411.253906 637.589844 412.839844 637.824219 414.414062 638.136719 C 415.988281 638.453125 417.542969 638.839844 419.078125 639.304688 C 420.613281 639.773438 422.125 640.3125 423.605469 640.925781 C 425.089844 641.539062 426.539062 642.226562 427.953125 642.984375 C 429.367188 643.738281 430.742188 644.5625 432.078125 645.453125 C 433.414062 646.347656 434.699219 647.300781 435.941406 648.320312 C 437.179688 649.335938 438.367188 650.414062 439.503906 651.546875 C 440.636719 652.683594 441.714844 653.871094 442.734375 655.113281 C 443.75 656.351562 444.707031 657.640625 445.597656 658.972656 C 446.488281 660.308594 447.3125 661.683594 448.070312 663.097656 C 448.828125 664.515625 449.511719 665.964844 450.125 667.445312 C 450.738281 668.929688 451.28125 670.4375 451.746094 671.972656 C 452.210938 673.507812 452.601562 675.0625 452.914062 676.636719 C 453.226562 678.210938 453.460938 679.796875 453.621094 681.394531 C 453.777344 682.992188 453.855469 684.59375 453.855469 686.199219 Z M 453.855469 686.199219 " fill-opacity="1" fill-rule="nonzero"/></svg>