<svg xmlns="http://www.w3.org/2000/svg" xmlns:xlink="http://www.w3.org/1999/xlink" width="1080" zoomAndPan="magnify" viewBox="0 0 810 809.999993" height="1080" preserveAspectRatio="xMidYMid meet" version="1.0"><defs><clipPath id="09d5d03618"><path d="M 405 0 C 181.324219 0 0 181.324219 0 405 C 0 628.675781 181.324219 810 405 810 C 628.675781 810 810 628.675781 810 405 C 810 181.324219 628.675781 0 405 0 Z M 405 0 " clip-rule="nonzero"/></clipPath><clipPath id="76c295de9b"><path d="M 0 0 L 810 0 L 810 810 L 0 810 Z M 0 0 " clip-rule="nonzero"/></clipPath><clipPath id="13b332557c"><path d="M 405 0 C 181.324219 0 0 181.324219 0 405 C 0 628.675781 181.324219 810 405 810 C 628.675781 810 810 628.675781 810 405 C 810 181.324219 628.675781 0 405 0 Z M 405 0 " clip-rule="nonzero"/></clipPath><clipPath id="4adfa60a09"><rect x="0" width="810" y="0" height="810"/></clipPath><clipPath id="c476014df9"><path d="M 0.753906 0.917969 L 421.25 0.917969 L 421.25 118.820312 L 0.753906 118.820312 Z M 0.753906 0.917969 " clip-rule="nonzero"/></clipPath><clipPath id="4e17a516b5"><path d="M 20.253906 0.917969 L 401.648438 0.917969 C 412.417969 0.917969 421.148438 9.648438 421.148438 20.417969 L 421.148438 99.320312 C 421.148438 110.089844 412.417969 118.820312 401.648438 118.820312 L 20.253906 118.820312 C 9.484375 118.820312 0.753906 110.089844 0.753906 99.320312 L 0.753906 20.417969 C 0.753906 9.648438 9.484375 0.917969 20.253906 0.917969 Z M 20.253906 0.917969 " clip-rule="nonzero"/></clipPath><clipPath id="b51ec28bc6"><path d="M 0.753906 0.917969 L 421.160156 0.917969 L 421.160156 118.820312 L 0.753906 118.820312 Z M 0.753906 0.917969 " clip-rule="nonzero"/></clipPath><clipPath id="ee126de73f"><path d="M 20.253906 0.917969 L 401.648438 0.917969 C 412.417969 0.917969 421.148438 9.648438 421.148438 20.417969 L 421.148438 99.320312 C 421.148438 110.089844 412.417969 118.820312 401.648438 118.820312 L 20.253906 118.820312 C 9.484375 118.820312 0.753906 110.089844 0.753906 99.320312 L 0.753906 20.417969 C 0.753906 9.648438 9.484375 0.917969 20.253906 0.917969 Z M 20.253906 0.917969 " clip-rule="nonzero"/></clipPath><clipPath id="6ebc7cb25f"><rect x="0" width="422" y="0" height="119"/></clipPath><clipPath id="cc8e6a71bd"><path d="M 305.34375 139 L 423.25 139 L 423.25 405.074219 L 305.34375 405.074219 Z M 305.34375 139 " clip-rule="nonzero"/></clipPath><clipPath id="8181121d8e"><path d="M 305.34375 385.574219 L 305.34375 158.734375 C 305.34375 147.964844 314.074219 139.234375 324.84375 139.234375 L 403.75 139.234375 C 414.519531 139.234375 423.25 147.964844 423.25 158.734375 L 423.25 385.574219 C 423.25 396.34375 414.519531 405.074219 403.75 405.074219 L 324.84375 405.074219 C 314.074219 405.074219 305.34375 396.34375 305.34375 385.574219 Z M 305.34375 385.574219 " clip-rule="nonzero"/></clipPath><clipPath id="4d212c7324"><path d="M 0.34375 0.0390625 L 118.25 0.0390625 L 118.25 266.074219 L 0.34375 266.074219 Z M 0.34375 0.0390625 " clip-rule="nonzero"/></clipPath><clipPath id="ebac66ecc5"><path d="M 0.34375 246.574219 L 0.34375 19.734375 C 0.34375 8.964844 9.074219 0.234375 19.84375 0.234375 L 98.75 0.234375 C 109.519531 0.234375 118.25 8.964844 118.25 19.734375 L 118.25 246.574219 C 118.25 257.34375 109.519531 266.074219 98.75 266.074219 L 19.84375 266.074219 C 9.074219 266.074219 0.34375 257.34375 0.34375 246.574219 Z M 0.34375 246.574219 " clip-rule="nonzero"/></clipPath><clipPath id="55212f2ebe"><rect x="0" width="119" y="0" height="267"/></clipPath><clipPath id="e01dfd0a22"><path d="M 0.753906 139.238281 L 270 139.238281 L 270 405.078125 L 0.753906 405.078125 Z M 0.753906 139.238281 " clip-rule="nonzero"/></clipPath><clipPath id="20b0297f03"><path d="M 0.753906 385.578125 L 0.753906 158.738281 C 0.753906 147.96875 9.484375 139.238281 20.253906 139.238281 L 250.402344 139.238281 C 261.171875 139.238281 269.902344 147.96875 269.902344 158.738281 L 269.902344 385.578125 C 269.902344 396.347656 261.171875 405.078125 250.402344 405.078125 L 20.253906 405.078125 C 9.484375 405.078125 0.753906 396.347656 0.753906 385.578125 Z M 0.753906 385.578125 " clip-rule="nonzero"/></clipPath><clipPath id="e4bc2c3102"><path d="M 0.753906 0.238281 L 269.960938 0.238281 L 269.960938 266.078125 L 0.753906 266.078125 Z M 0.753906 0.238281 " clip-rule="nonzero"/></clipPath><clipPath id="c751af322a"><path d="M 0.753906 246.578125 L 0.753906 19.738281 C 0.753906 8.96875 9.484375 0.238281 20.253906 0.238281 L 250.402344 0.238281 C 261.171875 0.238281 269.902344 8.96875 269.902344 19.738281 L 269.902344 246.578125 C 269.902344 257.347656 261.171875 266.078125 250.402344 266.078125 L 20.253906 266.078125 C 9.484375 266.078125 0.753906 257.347656 0.753906 246.578125 Z M 0.753906 246.578125 " clip-rule="nonzero"/></clipPath><clipPath id="dfd98a4faa"><rect x="0" width="270" y="0" height="267"/></clipPath><clipPath id="a1f28cd04e"><rect x="0" width="424" y="0" height="406"/></clipPath></defs><g clip-path="url(#09d5d03618)"><g transform="matrix(1, 0, 0, 1, 0, 0.000000000000039746)"><g clip-path="url(#4adfa60a09)"><g clip-path="url(#76c295de9b)"><g clip-path="url(#13b332557c)"><rect x="-178.2" width="1166.4" fill="#257b58" height="1166.39999" y="-178.199998" fill-opacity="1"/></g></g></g></g></g><g transform="matrix(1, 0, 0, 1, 193, 202)"><g clip-path="url(#a1f28cd04e)"><g clip-path="url(#c476014df9)"><g clip-path="url(#4e17a516b5)"><g transform="matrix(1, 0, 0, 1, 0, 0.000000000000028422)"><g clip-path="url(#6ebc7cb25f)"><g clip-path="url(#b51ec28bc6)"><g clip-path="url(#ee126de73f)"><path fill="#ffffff" d="M 0.753906 0.917969 L 421.25 0.917969 L 421.25 118.820312 L 0.753906 118.820312 Z M 0.753906 0.917969 " fill-opacity="1" fill-rule="nonzero"/></g></g></g></g></g></g><g clip-path="url(#cc8e6a71bd)"><g clip-path="url(#8181121d8e)"><g transform="matrix(1, 0, 0, 1, 305, 139)"><g clip-path="url(#55212f2ebe)"><g clip-path="url(#4d212c7324)"><g clip-path="url(#ebac66ecc5)"><path fill="#ffffff" d="M 0.34375 266.074219 L 0.34375 0.328125 L 118.25 0.328125 L 118.25 266.074219 Z M 0.34375 266.074219 " fill-opacity="1" fill-rule="nonzero"/></g></g></g></g></g></g><g clip-path="url(#e01dfd0a22)"><g clip-path="url(#20b0297f03)"><g transform="matrix(1, 0, 0, 1, 0, 139)"><g clip-path="url(#dfd98a4faa)"><g clip-path="url(#e4bc2c3102)"><g clip-path="url(#c751af322a)"><path fill="#ffffff" d="M 0.753906 266.078125 L 0.753906 0.238281 L 269.707031 0.238281 L 269.707031 266.078125 Z M 0.753906 266.078125 " fill-opacity="1" fill-rule="nonzero"/></g></g></g></g></g></g></g></g></svg>