<svg xmlns="http://www.w3.org/2000/svg" xmlns:xlink="http://www.w3.org/1999/xlink" width="1080" zoomAndPan="magnify" viewBox="0 0 810 809.999993" height="1080" preserveAspectRatio="xMidYMid meet" version="1.0"><defs><clipPath id="40a8aa676e"><path d="M 405 0 C 181.324219 0 0 181.324219 0 405 C 0 628.675781 181.324219 810 405 810 C 628.675781 810 810 628.675781 810 405 C 810 181.324219 628.675781 0 405 0 Z M 405 0 " clip-rule="nonzero"/></clipPath><clipPath id="f5cc0b6163"><path d="M 0 0 L 810 0 L 810 810 L 0 810 Z M 0 0 " clip-rule="nonzero"/></clipPath><clipPath id="9d4701553e"><path d="M 405 0 C 181.324219 0 0 181.324219 0 405 C 0 628.675781 181.324219 810 405 810 C 628.675781 810 810 628.675781 810 405 C 810 181.324219 628.675781 0 405 0 Z M 405 0 " clip-rule="nonzero"/></clipPath><clipPath id="ccd934046d"><rect x="0" width="810" y="0" height="810"/></clipPath><clipPath id="d7bfdaef9f"><path d="M 172.703125 172.703125 L 636.953125 172.703125 L 636.953125 636.953125 L 172.703125 636.953125 Z M 172.703125 172.703125 " clip-rule="nonzero"/></clipPath></defs><g clip-path="url(#40a8aa676e)"><g transform="matrix(1, 0, 0, 1, 0, 0.000000000000039746)"><g clip-path="url(#ccd934046d)"><g clip-path="url(#f5cc0b6163)"><g clip-path="url(#9d4701553e)"><rect x="-178.2" width="1166.4" fill="#378d4d" height="1166.39999" y="-178.199998" fill-opacity="1"/></g></g></g></g></g><g clip-path="url(#d7bfdaef9f)"><path fill="#ffffff" d="M 620.375 441.332031 C 629.488281 441.332031 636.945312 433.875 636.945312 424.757812 L 636.945312 384.6875 C 636.945312 375.570312 629.488281 368.113281 620.375 368.113281 L 603.164062 368.113281 C 594.050781 368.113281 584.40625 360.980469 581.71875 352.269531 L 567.035156 316.621094 C 562.726562 308.589844 564.472656 296.746094 570.914062 290.304688 L 583.09375 278.125 C 589.535156 271.675781 589.542969 261.128906 583.09375 254.683594 L 554.761719 226.351562 C 548.316406 219.902344 537.769531 219.902344 531.320312 226.351562 L 519.140625 238.53125 C 512.695312 244.976562 500.84375 246.71875 492.816406 242.402344 L 457.171875 227.726562 C 448.457031 225.046875 441.332031 215.394531 441.332031 206.28125 L 441.332031 189.074219 C 441.332031 179.957031 433.875 172.5 424.757812 172.5 L 384.6875 172.5 C 375.570312 172.5 368.113281 179.957031 368.113281 189.074219 L 368.113281 206.28125 C 368.113281 215.394531 360.980469 225.046875 352.277344 227.726562 L 316.628906 242.402344 C 308.59375 246.71875 296.75 244.972656 290.308594 238.527344 L 278.128906 226.34375 C 271.683594 219.898438 261.136719 219.898438 254.691406 226.34375 L 226.355469 254.679688 C 219.910156 261.125 219.910156 271.671875 226.355469 278.117188 L 238.542969 290.300781 C 244.988281 296.746094 246.730469 308.589844 242.421875 316.621094 L 227.738281 352.269531 C 225.058594 360.980469 215.40625 368.109375 206.292969 368.109375 L 189.089844 368.109375 C 179.972656 368.109375 172.515625 375.566406 172.515625 384.679688 L 172.515625 424.757812 C 172.515625 433.875 179.972656 441.332031 189.089844 441.332031 L 206.292969 441.332031 C 215.40625 441.332031 225.058594 448.457031 227.738281 457.171875 L 242.425781 492.824219 C 246.738281 500.851562 244.996094 512.699219 238.546875 519.140625 L 226.359375 531.328125 C 219.914062 537.769531 219.914062 548.316406 226.359375 554.761719 L 254.691406 583.09375 C 261.136719 589.542969 271.683594 589.535156 278.128906 583.09375 L 290.316406 570.910156 C 296.761719 564.46875 308.605469 562.722656 316.632812 567.035156 L 352.28125 581.71875 C 360.992188 584.398438 368.117188 594.042969 368.117188 603.164062 L 368.117188 620.375 C 368.117188 629.488281 375.578125 636.945312 384.691406 636.945312 L 424.765625 636.945312 C 433.878906 636.945312 441.335938 629.488281 441.335938 620.375 L 441.335938 603.160156 C 441.335938 594.042969 448.464844 584.398438 457.175781 581.714844 L 492.824219 567.035156 C 500.851562 562.722656 512.699219 564.460938 519.140625 570.910156 L 531.332031 583.09375 C 537.773438 589.542969 548.324219 589.535156 554.765625 583.09375 L 583.101562 554.761719 C 589.542969 548.320312 589.546875 537.769531 583.101562 531.320312 L 570.921875 519.140625 C 564.472656 512.695312 562.734375 500.84375 567.042969 492.816406 L 581.71875 457.171875 C 584.398438 448.457031 594.050781 441.332031 603.171875 441.332031 Z M 404.722656 500.257812 C 351.960938 500.257812 309.1875 457.484375 309.1875 404.722656 C 309.1875 351.953125 351.960938 309.179688 404.722656 309.179688 C 457.484375 309.179688 500.265625 351.953125 500.265625 404.722656 C 500.265625 457.484375 457.484375 500.257812 404.722656 500.257812 Z M 404.722656 500.257812 " fill-opacity="1" fill-rule="nonzero"/></g></svg>