<svg xmlns="http://www.w3.org/2000/svg" xmlns:xlink="http://www.w3.org/1999/xlink" width="1080" zoomAndPan="magnify" viewBox="0 0 810 809.999993" height="1080" preserveAspectRatio="xMidYMid meet" version="1.0"><defs><clipPath id="fd069e9fe9"><path d="M 405 0 C 181.324219 0 0 181.324219 0 405 C 0 628.675781 181.324219 810 405 810 C 628.675781 810 810 628.675781 810 405 C 810 181.324219 628.675781 0 405 0 Z M 405 0 " clip-rule="nonzero"/></clipPath><clipPath id="8efbe7ab1e"><path d="M 0 0 L 810 0 L 810 810 L 0 810 Z M 0 0 " clip-rule="nonzero"/></clipPath><clipPath id="d399fc7cb2"><path d="M 405 0 C 181.324219 0 0 181.324219 0 405 C 0 628.675781 181.324219 810 405 810 C 628.675781 810 810 628.675781 810 405 C 810 181.324219 628.675781 0 405 0 Z M 405 0 " clip-rule="nonzero"/></clipPath><clipPath id="497a9b529e"><rect x="0" width="810" y="0" height="810"/></clipPath><clipPath id="3a440e9a16"><path d="M 501 199.414062 L 603 199.414062 L 603 338 L 501 338 Z M 501 199.414062 " clip-rule="nonzero"/></clipPath><clipPath id="03c9ace702"><path d="M 501 397 L 603 397 L 603 610.023438 L 501 610.023438 Z M 501 397 " clip-rule="nonzero"/></clipPath></defs><g clip-path="url(#fd069e9fe9)"><g transform="matrix(1, 0, 0, 1, 0, 0.000000000000039746)"><g clip-path="url(#497a9b529e)"><g clip-path="url(#8efbe7ab1e)"><g clip-path="url(#d399fc7cb2)"><rect x="-178.2" width="1166.4" fill="#388980" height="1166.39999" y="-178.199998" fill-opacity="1"/></g></g></g></g></g><path fill="#ffffff" d="M 261.832031 423.429688 C 272.804688 423.429688 283.316406 426.917969 291.265625 433.898438 L 308.25 419.433594 L 308.25 363.554688 C 308.25 356.070312 302.28125 349.597656 294.292969 349.597656 L 221.429688 349.597656 C 213.945312 349.597656 207.46875 355.566406 207.46875 363.554688 L 207.46875 444.871094 L 239.886719 428.390625 C 246.863281 425.402344 254.347656 423.429688 261.832031 423.429688 " fill-opacity="1" fill-rule="nonzero"/><path fill="#ffffff" d="M 262.335938 531.691406 L 255.359375 526.183594 L 212.429688 547.671875 C 210.957031 548.636719 209.445312 549.140625 207.46875 549.644531 L 207.46875 595.054688 C 207.46875 602.539062 213.4375 609.011719 221.429688 609.011719 L 294.292969 609.011719 C 301.773438 609.011719 308.25 603.042969 308.25 595.054688 L 308.25 539.175781 C 302.742188 541.152344 297.78125 542.164062 291.769531 542.164062 C 281.300781 542.164062 270.832031 538.671875 262.335938 531.691406 " fill-opacity="1" fill-rule="nonzero"/><path fill="#ffffff" d="M 370.601562 386.511719 L 405.039062 390.96875 L 451.917969 336.101562 C 452.96875 335.09375 453.933594 333.621094 454.945312 332.609375 L 454.945312 288.210938 C 454.945312 280.726562 448.972656 274.253906 440.984375 274.253906 L 368.625 274.253906 C 361.140625 274.253906 354.667969 280.222656 354.667969 288.210938 L 354.667969 387.015625 C 358.15625 386.511719 361.140625 386.007812 364.632812 386.007812 C 367.113281 386.007812 369.132812 386.511719 370.601562 386.511719 " fill-opacity="1" fill-rule="nonzero"/><path fill="#ffffff" d="M 418.535156 487.292969 L 379.601562 482.289062 L 354.667969 503.734375 L 354.667969 595.558594 C 354.667969 603.042969 360.636719 609.519531 368.625 609.519531 L 441.488281 609.519531 C 448.972656 609.519531 455.449219 603.546875 455.449219 595.558594 L 455.449219 475.816406 C 446.957031 483.300781 435.980469 487.292969 424.503906 487.292969 C 422.527344 487.292969 420.507812 487.292969 418.535156 487.292969 " fill-opacity="1" fill-rule="nonzero"/><g clip-path="url(#3a440e9a16)"><path fill="#ffffff" d="M 530.289062 337.109375 L 581.164062 271.226562 C 586.671875 264.246094 593.648438 258.78125 602.144531 256.257812 L 602.144531 213.371094 C 602.144531 205.886719 596.128906 199.371094 588.183594 199.371094 L 515.320312 199.414062 C 507.835938 199.414062 501.363281 205.382812 501.363281 213.371094 L 501.363281 322.140625 C 504.851562 323.152344 507.835938 324.117188 510.820312 326.136719 L 530.289062 337.109375 " fill-opacity="1" fill-rule="nonzero"/></g><g clip-path="url(#03c9ace702)"><path fill="#ffffff" d="M 542.269531 445.375 C 534.28125 445.375 525.789062 443.398438 518.808594 439.40625 L 501.363281 429.398438 L 501.363281 596.0625 C 501.363281 603.546875 507.332031 610.023438 515.320312 610.023438 L 588.183594 610.023438 C 595.667969 610.023438 602.144531 604.050781 602.144531 596.0625 L 602.144531 397.484375 L 579.648438 426.917969 C 570.695312 438.898438 557.238281 445.375 542.269531 445.375 " fill-opacity="1" fill-rule="nonzero"/></g><path fill="#ffffff" d="M 633.089844 281.234375 C 623.082031 273.242188 608.113281 275.21875 600.125 285.226562 L 536.257812 368.054688 L 499.34375 346.570312 C 489.378906 341.105469 477.394531 343.082031 469.914062 351.574219 L 415 415.945312 L 368.121094 409.972656 C 361.605469 408.964844 355.128906 410.941406 350.167969 415.4375 L 292.273438 464.84375 L 276.800781 452.355469 C 269.820312 446.382812 259.855469 445.375 251.363281 449.371094 L 181.023438 485.277344 C 169.542969 491.289062 165.046875 505.246094 170.511719 516.726562 C 174.507812 524.714844 183 529.71875 191.492188 529.71875 C 194.980469 529.71875 198.472656 528.707031 201.960938 527.195312 L 258.34375 498.265625 L 276.800781 513.738281 C 285.796875 520.71875 298.242188 520.71875 306.738281 513.234375 L 371.613281 457.863281 L 420.507812 463.832031 C 428.5 464.84375 435.980469 461.855469 440.984375 455.84375 L 491.859375 396.980469 L 529.785156 418.929688 C 539.75 424.898438 552.742188 422.417969 560.222656 412.957031 L 636.074219 314.65625 C 645.027344 304.1875 643.050781 289.222656 633.089844 281.234375 " fill-opacity="1" fill-rule="nonzero"/></svg>