<svg xmlns="http://www.w3.org/2000/svg" xmlns:xlink="http://www.w3.org/1999/xlink" width="1080" zoomAndPan="magnify" viewBox="0 0 810 809.999993" height="1080" preserveAspectRatio="xMidYMid meet" version="1.0"><defs><clipPath id="7418251568"><path d="M 405 0 C 181.324219 0 0 181.324219 0 405 C 0 628.675781 181.324219 810 405 810 C 628.675781 810 810 628.675781 810 405 C 810 181.324219 628.675781 0 405 0 Z M 405 0 " clip-rule="nonzero"/></clipPath><clipPath id="02399d06c2"><path d="M 0 0 L 810 0 L 810 810 L 0 810 Z M 0 0 " clip-rule="nonzero"/></clipPath><clipPath id="c05f3007c0"><path d="M 405 0 C 181.324219 0 0 181.324219 0 405 C 0 628.675781 181.324219 810 405 810 C 628.675781 810 810 628.675781 810 405 C 810 181.324219 628.675781 0 405 0 Z M 405 0 " clip-rule="nonzero"/></clipPath><clipPath id="a966874f20"><rect x="0" width="810" y="0" height="810"/></clipPath><clipPath id="398cb900a3"><path d="M 454 187 L 664.808594 187 L 664.808594 552 L 454 552 Z M 454 187 " clip-rule="nonzero"/></clipPath><clipPath id="ab101804c8"><path d="M 151 139.074219 L 441 139.074219 L 441 462 L 151 462 Z M 151 139.074219 " clip-rule="nonzero"/></clipPath></defs><g clip-path="url(#7418251568)"><g transform="matrix(1, 0, 0, 1, 0, 0.000000000000039746)"><g clip-path="url(#a966874f20)"><g clip-path="url(#02399d06c2)"><g clip-path="url(#c05f3007c0)"><rect x="-178.2" width="1166.4" fill="#156438" height="1166.39999" y="-178.199998" fill-opacity="1"/></g></g></g></g></g><g clip-path="url(#398cb900a3)"><path fill="#ffffff" d="M 454.265625 233.28125 C 470.703125 217.65625 486.078125 202.855469 501.78125 188.417969 C 503.289062 187.03125 507.359375 186.878906 509.414062 187.867188 C 581.355469 222.476562 627.585938 278.40625 646.464844 356.03125 C 658.023438 403.554688 654.714844 450.664062 637.761719 496.617188 C 635.855469 501.792969 636.4375 504.542969 641.347656 507.3125 C 649.054688 511.667969 656.324219 516.789062 664.9375 522.332031 L 571.621094 551.335938 C 564.25 517.6875 557.050781 484.832031 549.449219 450.132812 C 560.332031 456.953125 569.929688 462.972656 580.289062 469.46875 C 596.632812 418.65625 593.199219 370.246094 568.503906 323.996094 C 543.890625 277.894531 505.300781 248.421875 454.265625 233.28125 Z M 454.265625 233.28125 " fill-opacity="1" fill-rule="nonzero"/></g><path fill="#ffffff" d="M 211.667969 571.75 L 180.410156 586.90625 C 188.175781 554.675781 195.523438 524.191406 203.207031 492.296875 L 301.722656 525.203125 L 269.21875 541.570312 C 304.046875 581.601562 347.5625 603.515625 399.699219 606.3125 C 451.96875 609.117188 497.523438 591.207031 536.925781 554.863281 C 541.363281 574.363281 545.703125 592.75 549.6875 611.214844 C 552.613281 624.765625 554.636719 621.261719 542.167969 629.179688 C 497.746094 657.398438 449.234375 670.882812 396.507812 668.007812 C 322.167969 663.953125 261.785156 632.398438 214.578125 575.125 C 213.800781 574.175781 212.976562 573.265625 211.667969 571.75 Z M 211.667969 571.75 " fill-opacity="1" fill-rule="nonzero"/><g clip-path="url(#ab101804c8)"><path fill="#ffffff" d="M 367.921875 173.667969 C 368.816406 162.199219 369.660156 151.421875 370.621094 139.128906 L 440.984375 206.59375 L 362.871094 274.714844 C 363.613281 261.851562 364.246094 250.914062 364.878906 239.910156 C 289.429688 246.863281 190.726562 333.179688 217.921875 461.832031 C 215.84375 461.367188 214.007812 461.09375 212.257812 460.550781 C 194.316406 454.972656 176.425781 449.226562 158.433594 443.824219 C 153.757812 442.417969 151.769531 440.320312 151.496094 435.113281 C 145.050781 311.066406 224.753906 205.449219 346.015625 177.734375 C 352.992188 176.140625 360.097656 175.105469 367.921875 173.667969 Z M 367.921875 173.667969 " fill-opacity="1" fill-rule="nonzero"/></g></svg>