<svg xmlns="http://www.w3.org/2000/svg" xmlns:xlink="http://www.w3.org/1999/xlink" width="1080" zoomAndPan="magnify" viewBox="0 0 810 809.999993" height="1080" preserveAspectRatio="xMidYMid meet" version="1.0"><defs><clipPath id="e341bf3771"><path d="M 405 0 C 181.324219 0 0 181.324219 0 405 C 0 628.675781 181.324219 810 405 810 C 628.675781 810 810 628.675781 810 405 C 810 181.324219 628.675781 0 405 0 Z M 405 0 " clip-rule="nonzero"/></clipPath><clipPath id="2a357420c1"><path d="M 0 0 L 810 0 L 810 810 L 0 810 Z M 0 0 " clip-rule="nonzero"/></clipPath><clipPath id="36e5a2dcff"><path d="M 405 0 C 181.324219 0 0 181.324219 0 405 C 0 628.675781 181.324219 810 405 810 C 628.675781 810 810 628.675781 810 405 C 810 181.324219 628.675781 0 405 0 Z M 405 0 " clip-rule="nonzero"/></clipPath><clipPath id="c334bef24b"><rect x="0" width="810" y="0" height="810"/></clipPath><clipPath id="f0102e8043"><path d="M 358 151 L 655.789062 151 L 655.789062 658 L 358 658 Z M 358 151 " clip-rule="nonzero"/></clipPath><clipPath id="75947c3bbd"><path d="M 154.039062 151 L 452 151 L 452 658 L 154.039062 658 Z M 154.039062 151 " clip-rule="nonzero"/></clipPath></defs><g clip-path="url(#e341bf3771)"><g transform="matrix(1, 0, 0, 1, 0, 0.000000000000039746)"><g clip-path="url(#c334bef24b)"><g clip-path="url(#2a357420c1)"><g clip-path="url(#36e5a2dcff)"><rect x="-178.2" width="1166.4" fill="#2e9670" height="1166.39999" y="-178.199998" fill-opacity="1"/></g></g></g></g></g><g clip-path="url(#f0102e8043)"><path fill="#ffffff" d="M 384.164062 178.242188 L 379.328125 177.925781 C 389.964844 159.589844 398.578125 150.871094 405.175781 151.769531 C 407.441406 151.371094 410.890625 152.894531 415.523438 156.347656 C 430.113281 170.402344 438.433594 177.832031 440.476562 178.628906 C 447.347656 182.566406 451.589844 184.367188 453.203125 184.027344 C 454.382812 184.589844 458.101562 184.382812 464.351562 183.414062 C 464.832031 183.855469 474.449219 180.480469 493.207031 173.292969 C 498.183594 172.304688 501.140625 172.121094 502.082031 172.738281 C 505.855469 174.34375 508.136719 176.074219 508.925781 177.929688 L 522.207031 207.757812 C 526.410156 214.285156 529.28125 217.699219 530.824219 218 C 533.007812 219.695312 536.738281 220.980469 542.015625 221.859375 L 572.359375 222.371094 C 576.421875 222.710938 579.660156 223.910156 582.074219 225.960938 C 583.339844 226.179688 584.820312 229.414062 586.519531 235.667969 L 588.570312 263.941406 C 590.136719 271.316406 591.523438 275.367188 592.722656 276.101562 C 594.199219 280.351562 605.339844 286.21875 626.136719 293.703125 C 631.140625 297.578125 633.582031 300.320312 633.46875 301.9375 C 634.460938 302.695312 634.691406 307.148438 634.160156 315.296875 L 627.203125 349.953125 C 626.347656 359.410156 626.339844 364.820312 627.183594 366.179688 C 627.027344 368.117188 629.046875 372.375 633.238281 378.949219 L 651.269531 397.667969 C 654.449219 402.390625 655.726562 405.296875 655.105469 406.382812 C 655.738281 407.285156 654.515625 410.570312 651.4375 416.242188 C 635.855469 435.042969 628.246094 446.96875 628.601562 452.019531 C 627.828125 453.453125 628.121094 457.839844 629.476562 465.167969 L 637.90625 490.003906 C 638.566406 495.980469 638.347656 499.378906 637.257812 500.191406 C 637.394531 501.359375 634.726562 504.054688 629.25 508.285156 L 603.011719 523.175781 C 596.496094 528.214844 593.070312 531.503906 592.734375 533.042969 C 591.421875 534.09375 589.976562 538.378906 588.390625 545.910156 L 586.917969 572.789062 C 585.34375 578.59375 583.90625 581.628906 582.597656 581.886719 C 582.027344 585.082031 568.773438 587.035156 542.84375 587.742188 C 535.222656 589.488281 531.03125 591 530.269531 592.269531 C 528.730469 592.648438 526.113281 595.976562 522.417969 602.253906 L 513.035156 626.882812 C 509.757812 631.820312 507.445312 634.171875 506.097656 633.933594 C 503.691406 634.925781 500.082031 634.902344 495.273438 633.855469 L 464.097656 624.628906 C 458.261719 623.601562 453.574219 623.558594 450.023438 624.507812 C 448.289062 624.300781 444.105469 626.558594 437.472656 631.285156 C 422.21875 647.277344 414.195312 655.027344 413.402344 654.542969 C 411.46875 655.964844 408.90625 656.792969 405.71875 657.035156 C 396.636719 658.71875 380.796875 642.371094 358.203125 607.996094 L 384.164062 178.242188 " fill-opacity="1" fill-rule="nonzero"/></g><g clip-path="url(#75947c3bbd)"><path fill="#ffffff" d="M 425.96875 178.242188 L 430.804688 177.925781 C 420.167969 159.589844 411.550781 150.871094 404.957031 151.769531 C 402.691406 151.371094 399.242188 152.894531 394.609375 156.347656 C 380.015625 170.402344 371.699219 177.832031 369.65625 178.628906 C 362.78125 182.566406 358.539062 184.367188 356.929688 184.027344 C 355.746094 184.585938 352.03125 184.382812 345.777344 183.414062 C 345.300781 183.855469 335.683594 180.480469 316.925781 173.292969 C 311.949219 172.304688 308.992188 172.121094 308.050781 172.738281 C 304.277344 174.34375 301.996094 176.074219 301.207031 177.929688 L 287.925781 207.757812 C 283.722656 214.285156 280.851562 217.699219 279.308594 218 C 277.125 219.695312 273.394531 220.980469 268.117188 221.859375 L 237.773438 222.371094 C 233.710938 222.710938 230.46875 223.910156 228.054688 225.960938 C 226.792969 226.179688 225.3125 229.414062 223.613281 235.664062 L 221.5625 263.941406 C 219.992188 271.316406 218.609375 275.367188 217.40625 276.101562 C 215.929688 280.351562 204.792969 286.21875 183.996094 293.703125 C 178.992188 297.578125 176.546875 300.320312 176.664062 301.9375 C 175.671875 302.695312 175.441406 307.148438 175.96875 315.296875 L 182.929688 349.953125 C 183.785156 359.410156 183.792969 364.820312 182.949219 366.179688 C 183.105469 368.117188 181.085938 372.375 176.890625 378.949219 L 158.863281 397.667969 C 155.683594 402.390625 154.40625 405.296875 155.027344 406.382812 C 154.390625 407.285156 155.617188 410.570312 158.695312 416.242188 C 174.277344 435.042969 181.886719 446.96875 181.53125 452.019531 C 182.304688 453.453125 182.011719 457.839844 180.65625 465.167969 L 172.226562 490.003906 C 171.566406 495.980469 171.78125 499.378906 172.875 500.191406 C 172.738281 501.359375 175.40625 504.054688 180.882812 508.285156 L 207.121094 523.175781 C 213.636719 528.214844 217.058594 531.503906 217.398438 533.042969 C 218.710938 534.09375 220.15625 538.378906 221.738281 545.910156 L 223.214844 572.789062 C 224.785156 578.59375 226.226562 581.628906 227.535156 581.886719 C 228.105469 585.082031 241.355469 587.035156 267.289062 587.742188 C 274.910156 589.488281 279.097656 590.996094 279.863281 592.269531 C 281.402344 592.648438 284.019531 595.976562 287.714844 602.253906 L 297.09375 626.882812 C 300.375 631.820312 302.6875 634.171875 304.035156 633.933594 C 306.441406 634.925781 310.050781 634.902344 314.859375 633.855469 L 346.035156 624.628906 C 351.871094 623.601562 356.558594 623.558594 360.105469 624.507812 C 361.84375 624.300781 366.027344 626.558594 372.65625 631.285156 C 387.910156 647.277344 395.933594 655.027344 396.730469 654.542969 C 398.664062 655.964844 401.226562 656.792969 404.414062 657.035156 C 413.496094 658.71875 429.335938 642.371094 451.929688 607.996094 L 425.96875 178.242188 " fill-opacity="1" fill-rule="nonzero"/></g><path fill="#2e9670" d="M 526.335938 302.914062 L 519.152344 303.332031 L 511.652344 304.585938 C 506.546875 305.703125 501.234375 307.378906 495.714844 309.609375 C 490.1875 311.84375 484.457031 314.632812 478.515625 317.980469 C 466.863281 324.535156 453.90625 333.605469 439.648438 345.195312 C 411.535156 368.207031 386.996094 396.585938 366.039062 430.324219 C 359.953125 419.816406 352.589844 408.65625 343.953125 396.851562 C 338.210938 389.582031 332.964844 385.324219 328.203125 384.085938 C 324.179688 381.914062 318.203125 382.210938 310.28125 384.984375 C 302.472656 388.457031 295.148438 394.1875 288.308594 402.179688 C 284.507812 407.835938 283.289062 414.335938 284.65625 421.679688 C 287.496094 431.230469 289.972656 437.214844 292.089844 439.632812 L 330.414062 499.199219 C 332.519531 502.351562 334.773438 505.453125 337.171875 508.5 C 344.867188 519 351.796875 523.882812 357.964844 523.144531 C 364.550781 523.449219 374.0625 516.972656 386.496094 503.710938 C 423.390625 452.941406 450.492188 419.757812 467.800781 404.15625 C 475.4375 396.980469 483.714844 390.03125 492.628906 383.300781 C 525.320312 362.050781 543.078125 349.429688 545.898438 345.4375 C 554.378906 333.761719 556.480469 324.046875 552.210938 316.292969 L 549.625 312.339844 C 547.558594 309.769531 544.808594 307.335938 541.378906 305.042969 C 535.511719 303.472656 530.496094 302.765625 526.335938 302.914062 Z M 526.335938 302.914062 " fill-opacity="1" fill-rule="nonzero"/></svg>